/* XPM */
static char * exitc_xpm[] = {
"64 64 14 1",
" 	c #696558",
".	c #777364",
"+	c #575349",
"@	c #46433A",
"#	c #25231D",
"$	c #3B3830",
"%	c #512200",
"&	c #652A00",
"*	c #391800",
"=	c #491F00",
"-	c #171611",
";	c #E36A2D",
">	c #A63F0C",
",	c #BA4910",
"     ..   +@#+.                 +@#+.                +@#+.  .   ",
"    .     +@#+.                 +@#+.                +@#+. .    ",
"  ..      +@#+.                 +@#+.                +@#+. .    ",
" .        +@#+.                 +@#+.                +@#+.      ",
".         +@#+.                 +@#+.                +@#+.      ",
"          +@#+.                 +@#+.                +@#+.     .",
"          +@#+.                 +@#+.                +@#+.    . ",
"          +@#+.                 +@#+.                +@#+.   .  ",
"          +@#+.                 +@#+.                +@#+.      ",
"          +@#+.                 +@#+.                +@#+.      ",
"          +@#+.                 +@#+.                +@#+.      ",
"@@@@@@@@@@@@#@@@@@@@@@@@@@@@@@@@@@#@@@@@@@@@@@@@@@@@@@@#@@@@@@@@",
"$$$$$$$$$$$$#$$$$$$$$$$$$$$$$$$$$$#$$$$$$$$$$$$$$$$$$$$#$$$$$$$$",
"################.          @############.          @############",
"+++++++++++@#%%&.          @*%%&%%=*%%&%.          @%%%#++++++##",
"..........+@#%%&.. #@   #@ @*%%&%%=*%%&%.. #@   #@ @%%%#+... +-+",
".         +@#%%&%..       @=*%%&%%=*%%&%%..       @&%%%#+.  +#-+",
"          +@#%%&%%...   @@%=*%%&%%=*%%&%%%...   @@%&%%%#+. +#-+.",
"          +@#%%&%%%=....%&%=*%%&%%=*%%%&%%%&....%%%&%%%#+.+--#+.",
"          +@#%%&%%%=*%%&%&%=*%%&%%=*%%%&%%%&%%=*%%%&%%%#+ +-#+. ",
"          +@#%%&%%%=*%%&%&%=*%%&%%=*%%%&%%&%%%=*%%%%&%%###-#+.  ",
"          +@#%%&%%%=*%%&%&%=*%%&%%=*%%%&%%&%%%=*%%%%&%&# ##+.   ",
"          +@#%%&%%%=*%%&%&%=*%%&%%=*%%%&%%&%%%=*%%%%&%&#. #+.   ",
"          +@#%%&%%==*%%&%&%=*%%%&%==*%%&%%&%%%=*%%%%%&&#. +.    ",
"          +@#%%&%%=*%%%&&%%=*%%%&%%=*%%&%%&%%%=*%%%%%&%# #+.    ",
"          +@#%%&%%=*%%%&&%%=*%%%&%%=*%%%&%&%%%=*%%%%%&%##+.     ",
"          +@#%%&%%=*%%%&&%%=*%%%&%%=*%%%&%&%%%=*%%%%%&%#+.      ",
"          +@#%%&%%=*%%%%&%%=*%%%&%%=*%%%&%&%%%=*%%%%%&%#+.      ",
"          +@#%%&%%=*%%%%&%%=*%%%&%%=*%%%&%&%%%=*%%%%%&%#+.      ",
"          +@#%%&%%=*%%%%&%%=*%%%&%%=*%%%&%&%%%=*%%%%%&%#+.      ",
"          +@#%%&%%=*%%%%&%%=*%%%&%%=*%%%&%&%%%=*%%%%&%%#+.      ",
"          +@#%%&%%=*%%%%&%%=*%%%&%%=*%%%&&%%%%=*%%%%&%%#+.      ",
"@@@@@@@@@@@@#%&%%%=*%%%%&%%==*%%&%%=*%%%&&%%%==*%%%%&%%#@@@@@@@@",
"$$$$$$$$$$$$#%&%%%=*%%%%&%%%=*%%&%%=*%%%%&%%%=*%%%%%&%%#$$$$$$$$",
"#############%&%%%=*%%%%&%%%=*%%&%%=*%%%%&%%%=*%%%%%&%%#########",
"+++++++++++@#%&%%%=*%%%%&%%%=*%%&%%=*%%%%&%%%=*%%%%%&%%#++++++++",
"..........+@#%&%%%=*%%%%&%%%=*%%&%%=*%%%%&%%%=*%%%%&%%%#+.......",
"          +@#%&%%%=*%%%%&%%%=*%%....*%%%%&%%%=*%%%%&%%%#+.      ",
"          +@#%&%%%=*%%%%&%%%=*%.#  #@%%%%&%%%=*%%%%&%%%#+.      ",
"          +@#%&%%%=*%%%%&%%%=*%.    @%%%%&%%%=*%%%%&%%%#+.      ",
"          +@#%&%%%=*%%%%&%%%=*%%...@*%%%%%&%%=*%%%%&%%%#+.      ",
"          +@#%&%%==*%%%%&%%%=*%.    @*%%%%&%%=*%%%%&%%%#+.      ",
"          +@#%&%%=*%%%%&%%%%=*.  &%  @%%%%&%%=*%%%&%%%%#+.      ",
"          +@#%&%%=*%%%%&%%%%=.  %&%%  @%%%&%%=*%%%&%%%%#+.      ",
"          +@#%&%%=*%%%%&%%%%=. %%&%%= @%%%&%%=*%%%&%%%%#+.      ",
"          +@#%&%%=*%%%%&%%%%=. %%&%%= @%%%&%%=*%%%&%%%%#+.      ",
"          +@#%&%%=*%%%%&%%%%=.  %&%%  @%%%&%%=*%%%&%%%%#+.      ",
"          +@#%&%%=*%...&%%%%=*.  &%  @%%%%%&%...%%&%%%%#+.      ",
"          +@#%&%%=*..@  %%%%=*%.    @*%%%%%&..@  &%%%%%#+.      ",
"          +@#%&%%=*@ # @%%%%=*%%@@@@=*%%%%%&@ # @&%%%%%#+.      ",
"          +@#%&%%=*#   #%%%%=*%%%&%%=*%%%%%&#   #&%%%%%#+.      ",
"          +@#%&%%=*%...%%%%%=*%%%&%%=*%%%%%&%...&%%%%%%#+.      ",
"          +@#%&%%=*.;;>.%%%%=*%%%&%%=*%%%%%&.;;>.%%%%%%#+.      ",
"@@@@@@@@@@@@#&&&&** ;@> &&&&**&&&&&&**&&&&&& ;@> &&&&&&#@@@@@@@@",
"$$$$$$$$$$$$#%%%***;,,,>%%%****%%%%****%%%%%;,,,>%%%%%%#$$$$$$$$",
"###################;>>,>####################;>>,>###############",
"+++++++++++@#++++++;,,,>+++++++++@#+++++++++;,,,>+++++@#++++++++",
"..........+@#+......>>>.........+@#+.........>>>.....+@#+.......",
"          +@#+.                 +@#+.                +@#+.      ",
"          +@#+.                 +@#+.                +@#+.      ",
"          +@#+.                 +@#+.                +@#+.      ",
"          +@#+.                 +@#+.                +@#+.      ",
"       .  +@#+.                 +@#+.                +@#+.    ..",
"      .   +@#+.                 +@#+.                +@#+.   .  "};
