/* XPM */
static char * exito_xpm[] = {
"64 64 13 1",
" 	c #696558",
".	c #777364",
"+	c #575349",
"@	c #46433A",
"#	c #25231D",
"$	c #3B3830",
"%	c #491F00",
"&	c #652A00",
"*	c #391800",
"=	c #512200",
"-	c #171611",
";	c #0C0C09",
">	c #411B00",
"     ..   +@#+.                 +@#+.                +@#+.  .   ",
"    .     +@#+.                 +@#+.                +@#+. .    ",
"  ..      +@#+.                 +@#+.                +@#+. .    ",
" .        +@#+.                 +@#+.                +@#+.      ",
".         +@#+.                 +@#+.                +@#+.      ",
"          +@#+.                 +@#+.                +@#+.     .",
"          +@#+.                 +@#+.                +@#+.    . ",
"          +@#+.                 +@#+.                +@#+.   .  ",
"          +@#+.                 +@#+.                +@#+.      ",
"          +@#+.                 +@#+.                +@#+.      ",
"          +@#+.                 +@#+.                +@#+.      ",
"@@@@@@@@@@@@#@@@@@@@@@@@@@@@@@@@@@#@@@@@@@@@@@@@@@@@@@@#@@@@@@@@",
"$$$$$$$$$$$$#$$$$$$$$$$$$$$$$$$$$$#$$$$$$$$$$$$$$$$$$$$#$$$$$$$$",
"##############@@@@@@@@@@@##################@@@@@@@@@@@##########",
"+++++++++++@#%..#@   #@  &%%&%*%&=*%%&%%%%%..#@   #@  =#++++++##",
"..........+@%%%.........%&%&%%*%&%*%%&%%%%&%.........%&%+... +-+",
".         +@%%%%&&%%%*%%%%&%%*%%&%%*%%&%%%&%%%%%*%%%&%&%+.  +#-+",
"          +%%%%&%%%%*%%%%&%%%*%%&%%*%%&%%&%%%%%*%%%%%&%%%. +#-+.",
"          %%%%&%%%%*%%%%&%%%*%%%&%%*%%%&&%%%%%%*%%%%%&%%%%+--#+.",
"         ====&====*=====&===*==@@@@@===&=======*=====&=====-#+. ",
"         ===&====*=====&===*=........ ==&======*====&======#+.  ",
"        ==&&====*=====&====*.. @@@@@ .@=&======*====&=======.   ",
"       ==&=====...===&====*= ........ @==&=====*==...========   ",
"      ==&=====..@  =&=====*==        @===&====*==..@  ========  ",
"     &&&&&&&&*@ # @&&&&&&*&&&&&&&&&&&*&&&&&&&&*&&@ # @&&&&&&&&& ",
"     %%%%%%%*%%@@@%%%%%%%*%%%%%%%%%%%*%%%%%%%%*%%%@@@%%%%%%%%%% ",
"     ********************************************************** ",
"      ********************************************************  ",
"          +@#------------------------------------------#+.      ",
"          +@#------------------------------------------#+.      ",
"          +@#;;;;;;;;;;;;;;;;;;;;;;;;;;;;;;;;;;;;;;;;;;#+.      ",
"          +@#;;;;;;;;;;;;;;;;;;;;;;;;;;;;;;;;;;;;;;;;;;#+.      ",
"@@@@@@@@@@@@#;;;;;;;;;;;;;;;;;;;;;;;;;;;;;;;;;;;;;;;;;;#@@@@@@@@",
"$$$$$$$$$$$$#;;;;;;;;;;;;;;;;;;;;;;;;;;;;;;;;;;;;;;;;;;#$$$$$$$$",
"#############;;;;;;;;;;;;;;;;;;;;;;;;;;;;;;;;;;;;;;;;;;#########",
"+++++++++++@#;;;;;;;;;;;;;;;;;;;;;;;;;;;;;;;;;;;;;;;;;;#++++++++",
"..........+@#;;;;;;;;;;;;;;;;;;;;;;;;;;;;;;;;;;;;;;;;;;#+.......",
"          +@#;;;;;;;;;;;;;;;;;;;;;;;;;;;;;;;;;;;;;;;;;;#+.      ",
"          +@#;;;;;;;;;;;;;;;;;;;;;;;;;;;;;;;;;;;;;;;;;;#+.      ",
"          +@#;;;;;;;;;;;;;;;;;;;;;;;;;;;;;;;;;;;;;;;;;;#+.      ",
"          +@#;;;;;;;;;;;;;;;;;;;;;;;;;;;;;;;;;;;;;;;;;;#+.      ",
"          +@#;;;;;;;;;;;;;;;;;;;;;;;;;;;;;;;;;;;;;;;;;;#+.      ",
"          +@#;;;;;;;;;;;;;;;;;;;;;;;;;;;;;;;;;;;;;;;;;;#+.      ",
"          +@#;;;;;;;;;;;;;;;;;;;;;;;;;;;;;;;;;;;;;;;;;;#+.      ",
"          +@#;;;;&&&;;;;;;;;;;;;;;;;;;;;;;;;;;;&&&;;;;;#+.      ",
"          +@#;;;&&==&;;;;;;;;;;;;;;;;;;;;;;;;;&&===;;;;#+.      ",
"          +@#;;;&===>;;;;;;;;;;;;;;;;;;;;;;;;;&====;;;;#+.      ",
"          +@#;;;&===>========================&&====;;;;#+.      ",
"          +@#;;;&&==>&&&&&&&&&&&&&&&&&&&&&&&&&====>;;;;#+.      ",
"          +@#;;;;>&==>=======================>===>;;;;;#+.      ",
"          +@#;;;;>&===>;;;;;;;;;;;;;;;;;;;;;>====>;;;;;#+.      ",
"          +@#;;;;;>&==>;;;;;;;;;;;;;;;;;;;;;>===>>;;;;;#+.      ",
"          +@#;;;;;>&==>&&&&&&&&&&&&&&&&=====>===>;;;;;;#+.      ",
"@@@@@@@@@@@@#;;;;;>>&==>=========>>>>>>>>>>>===>>;;;;;;#@@@@@@@@",
"$$$$$$$$$$$$#;;;;;;>&==>>>>>>>>>>>>>>>>>>>>>===>>;;;;;;#$$$$$$$$",
"################################################################",
"+++++++++++@#++++++++++++++++++++@#+++++++++++++++++++@#++++++++",
"..........+@#+..................+@#+.................+@#+.......",
"          +@#+.                 +@#+.                +@#+.      ",
"          +@#+.                 +@#+.                +@#+.      ",
"          +@#+.                 +@#+.                +@#+.      ",
"          +@#+.                 +@#+.                +@#+.      ",
"       .  +@#+.                 +@#+.                +@#+.    ..",
"      .   +@#+.                 +@#+.                +@#+.   .  "};
