/* XPM */
static char * key2_xpm[] = {
"64 64 10 1",
" 	c #696558",
".	c #777364",
"+	c #575349",
"@	c #46433A",
"#	c #25231D",
"$	c #3B3830",
"%	c #171611",
"&	c #F79200",
"*	c #FFD039",
"=	c #F7BC00",
"     ..   +@#+.                 +@#+.                +@#+.  .   ",
"    .     +@#+.                 +@#+.                +@#+. .    ",
"  ..      +@#+.                 +@#+.                +@#+. .    ",
" .        +@#+.                 +@#+.                +@#+.      ",
".         +@#+.                 +@#+.                +@#+.      ",
"          +@#+.                 +@#+.                +@#+.     .",
"          +@#+.                 +@#+.                +@#+.    . ",
"          +@#+.                 +@#+.                +@#+.   .  ",
"          +@#+.                 +@#+.                +@#+.      ",
"          +@#+.                 +@#+.                +@#+.      ",
"          +@#+.                 +@#+.                +@#+.      ",
"@@@@@@@@@@@@#@@@@@@@@@@@@@@@@@@@@@#@@@@@@@@@@@@@@@@@@@@#@@@@@@@@",
"$$$$$$$$$$$$#$$$$$$$$$$$$$$$$$$$$$#$$$$$$$$$$$$$$$$$$$$#$$$$$$$$",
"################################################################",
"+++++++++++@#++++++++++++++++++++@#+++++++++++++++++++@#++++++##",
"..........+@#+..................+@#+.................+@#+... +%+",
".         +@#+.                 +@#+.                +@#+.  +#%+",
"          +@#+.                 +@#+. &              +@#+. +#%+.",
"          +@#+.                 +@#+.**&  ..         +@#+.+%%#+.",
"          +@#+.                 +@#+. *=&  ..        +@#+ +%#+. ",
"          +@#+.                 +@#&.  *=&   .       +@###%#+.  ",
"          +@#+.                 +@**&   *=&   .      +@# ##+.   ",
"          +@#+.                 +@#**&  =*=&  ..     +@#. #+.   ",
"          +@#+.                 +@#+**&==**=&  .     +@#. +.    ",
"          +@#+.                 +@#+.**=**==&& ..    +@# #+.    ",
"          +@#+.                 +@#+. =**==&&   .    +@##+.     ",
"          +@#+.                 +@#+.&**==&&         +@#+.      ",
"          +@#+.                 +@#+&**==&&          +@#+.      ",
"          +@#+.                 +@#&**==&&           +@#+.      ",
"          +@#+.                 +@&**==&&            +@#+.      ",
"          +@#+.            **** +&**==&&             +@#+.      ",
"          +@#+.          **====****==&&              +@#+.      ",
"@@@@@@@@@@@@#@@@@@@@@@@@*==****=====&&@@@@@@@@@@@@@@@@@#@@@@@@@@",
"$$$$$$$$$$$$#$$$$$$$$$$*==*&&&&*===&&$$$$$$$$$$$$$$$$$$#$$$$$$$$",
"######################*==*&&##&&*==&############################",
"+++++++++++@#+++++++++*=*&&++++&&*=&++++++++++++++++++@#++++++++",
"..........+@#+.......*==*&......&*=&&................+@#+.......",
"          +@#+.      *==*&      &*==&                +@#+.      ",
"          +@#+.      &==*&&    &&*==&                +@#+.      ",
"          +@#+.      &&==*&&  &&*==&&                +@#+.      ",
"          +@#+.       &===*&&&&*===&.                +@#+.      ",
"          +@#+.       &&===****===&&.                +@#+.      ",
"          +@#+.        &&========&&+.                +@#+.      ",
"          +@#+.         &&======&&#+.                +@#+.      ",
"          +@#+.          &&&==&&&@#+.                +@#+.      ",
"          +@#+.            &&&& +@#+.                +@#+.      ",
"          +@#+.                 +@#+.                +@#+.      ",
"          +@#+.                 +@#+.                +@#+.      ",
"          +@#+.                +@@#+.                +@#+.      ",
"          +@#+.               +@@##+.                +@#+.      ",
"          +@#+.              +@@###+.                +@#+.      ",
"          +@#+.              +@##%#+.                +@#+.      ",
"          +@#+.             ++@#%%#+.                +@#+.      ",
"@@@@@@@@@@@@#@@@@@@@@@@@@@@@@@#%%%#@@@@@@@@@@@@@@@@@@@@#@@@@@@@@",
"$$$$$$$$$$$$#$$$$$$$$$$$$$$$$##%%%#$$$$$$$$$$$$$$$$$$$$#$$$$$$$$",
"################################################################",
"+++++++++++@#++++++++++++++++++++@#+++++++++++++++++++@#++++++++",
"..........+@#+..................+@#+.................+@#+.......",
"          +@#+.                 +@#+.                +@#+.      ",
"          +@#+.                 +@#+.                +@#+.      ",
"          +@#+.                 +@#+.                +@#+.      ",
"          +@#+.                 +@#+.                +@#+.      ",
"       .  +@#+.                 +@#+.                +@#+.    ..",
"      .   +@#+.                 +@#+.                +@#+.   .  "};
