/* XPM */
static char * knight1_xpm[] = {
"64 64 19 1",
" 	c #696558",
".	c #777364",
"+	c #575349",
"@	c #46433A",
"#	c #25231D",
"$	c #BD0000",
"%	c #E10000",
"&	c #910000",
"*	c #DADADA",
"=	c #AFAFAF",
"-	c #FFD800",
";	c #919191",
">	c #3B3830",
",	c #000000",
"'	c #6E6E6E",
")	c #171611",
"!	c #434343",
"~	c #6E0A00",
"{	c #C42C00",
"     ..   +@#+.                 +@#+.                +@#+.  .   ",
"    .     +@#+.                 +@#+.                +@#+. .    ",
"  ..      +@#+.                 +@#+.                +@#+. .    ",
" .        +@#+.                 +@#+.                +@#+.      ",
".         +@#+.                 +@#+.                +@#+.      ",
"          +@#+.              $$$$@#+.                +@#+.     .",
"          +@#+.             $%%%$$#+.                +@#+.    . ",
"          +@#+.            $%%$%%$$+.                +@#+.   .  ",
"          +@#+.            $%$&&%%$+.                +@#+.      ",
"          +@#+.           $%$&*===-=.                +@#+.      ",
"          +@#+.          $%%&----;;;-                +@#+.      ",
"@@@@@@@@@@@@#@@@@@@@@@@@@%%$&=;;;---;@@@@@@@@@@@@@@@@@@#@@@@@@@@",
">>>>>>>>>>>>#>>>>>>>>>>>$%$&>*===;-;=>>>>>>>>>>>>>>>>>>#>>>>>>>>",
"#######################$%$&##=;,,=-=,###########################",
"+++++++++++@#+++++++++$$&++++=;'',,,'+===-=+++++++++++@#++++++##",
"..........+@#+............$$$*==='-'=;;;==-=.........+@#+... +)+",
".         +@#+.       ;;;;$--=;;;=-=;-!!;==-=        +@#+.  +#)+",
"          +@#+.      ====;;!!=;;;;-;'!-!!;==-=       +@#+. +#)+.",
"          +@#+.     =---==;;!!''''-'!!!-!!;==-=      +@#+.+))#+.",
"          +@#+.    =-===-==;-!!!!!!!!----!!;==-      +@#+ +)#+. ",
"          +@#+.   =-==-==-=;;---------;;=!!!;==      +@###)#+.  ",
"          +@#+.   -==---=-==;=;;;;;==;;;='!!!;=      +@# ##+.   ",
"          +@#+.  =-=---==-==;=;;;;;;=;;;=''!!!..     +@#. #+.   ",
"          +@#+. ;=-==-==-==;;=;;;;;;==;=='''!  .     +@#. +.    ",
"          +@#+. ;==-===-==;;'==;;;;====='''!!  ..    +@# #+.    ",
"          +@#+. ;;==---==;;'!'======''''!'!--!  .    +@##+.     ",
"          +@#+.  ;;=====;;'!!''''''';;;!!!-;''!      +@#+.      ",
"          +@#+.   ;;;==;;'!!'';;;;---;;&!-;;;'!!  -  +@#+.      ",
"          +@#+.  %'';;;;'!!'';;;--!'!--&&-;;;!;; --- +@#+.      ",
"          +@#+. %%;;''''!&'';;--!!;='!&&&&!;!!;;~{-  +@#+.      ",
"          +@#+. %;;;----&&----!!;;;='!~~&--!!!{;{'   +@#+.      ",
"          +@#+.%%----;;'&&&;;=!;;;=''!{=~-';!{~;''   +@#+.      ",
"@@@@@@@@@@@@#@@%%-==;;;'&&{;;=!;;;='!{~;={';;~''';@@@@@#@@@@@@@@",
">>>>>>>>>>>>#>%%%'===;;;'=~{;=!;;;={{~';;=!';;'';>>>>>>#>>>>>>>>",
"#############%%%%%'==;;;'==~{~{~~{{~&$';'={!';;#################",
"+++++++%%++%%%%%$$'===;;'!==;'$$$&$$&%$';;={!';+++++++@#++++++++",
".......$%%%%%$$$$&&'===!!'!;;'!%$&%$&%$!';'~{';-.....+@#+.......",
"        &$$$$$&&&&&&!!!!'''!''!$%$&%$&%'!';=  --     +@#+.      ",
"        &&&&&&&&&&&&&';;'''!'!;$%$&%$&%$!!''         +@#+.      ",
"         &&&&&&&&&&&&';;;''!!;;'$%$&%$&%'!           +@#+.      ",
"          +&&&.  &&&&$';;;!;!;;'!$%$&$&%'!!          +@#+.      ",
"          +@#+.    &$$=''';!;;''!~$%$&$'---          +@#+.      ",
"          +@#+.     $$==;;!--;'!~@#+'''-'''-         +@#+.      ",
"          +@#+.      $ ;;!!''-'!+@#+.~{-'===-        +@#+.      ",
"          +@#+.        !!!=='-{~+@#+.~~-';==-        +@#+.      ",
"          +@#+.        ~-==;'-~~+@#+.{~-';;=-        +@#+.      ",
"          +@#+.         -=;;'-~{+@#+. {-'''-;        +@#+.      ",
"          +@#+.          -'''-{ +@#+. =;---;         +@#+.      ",
"          +@#+.          ;---;'+@@#+. =;===;         +@#+.      ",
"          +@#+.          ;===;'@@##+.  =;=;          +@#+.      ",
"          +@#+.           ;=;'@@###+.  !!!!          +@#+.      ",
"          +@#+.           !!!!@##)#+. !';;;;         +@#+.      ",
"          +@#+.          ;;;;'!#))#+. !'!!!!!        +@#+.      ",
"@@@@@@@@@@@@#@@@@@@@@@@@!!!!!'!)))#@@@~!'';;;;@@@@@@@@@#@@@@@@@@",
">>>>>>>>>>>>#>>>>>>>>>>;;;;''!~)))#>>>>~!!!!!!>>>>>>>>>#>>>>>>>>",
"#######################!!!!!!~##################################",
"+++++++++++@#++++++++++++++++++++@#+++++++++++++++++++@#++++++++",
"..........+@#+..................+@#+.................+@#+.......",
"          +@#+.                 +@#+.                +@#+.      ",
"          +@#+.                 +@#+.                +@#+.      ",
"          +@#+.                 +@#+.                +@#+.      ",
"          +@#+.                 +@#+.                +@#+.      ",
"       .  +@#+.                 +@#+.                +@#+.    ..",
"      .   +@#+.                 +@#+.                +@#+.   .  "};
