/* XPM */
static char * trap3_xpm[] = {
"64 64 19 1",
" 	c #696558",
".	c #777364",
"+	c #575349",
"@	c #46433A",
"#	c #25231D",
"$	c #1C1B19",
"%	c #3B3830",
"&	c #35332E",
"*	c #0C0C0B",
"=	c #171611",
"-	c #10100E",
";	c #5C1513",
">	c #080808",
",	c #797569",
"'	c #591211",
")	c #510C0B",
"!	c #69655B",
"~	c #413F3A",
"{	c #101010",
"     ..   +@#+.                 +@#+.                +@#+.  .   ",
"    .     +@#+.                 +@#+.                +@#+. .    ",
"  ..      +@#+.                 +@#+.                +@#+. .    ",
" .        +@#+.                 +@#+.                +@#+.      ",
".         +@#+.                 +@#+.                +@#+.      ",
"          +@#+.                 +@#+.                +@#+.     .",
"          +@#+.                 +@#+.                +@#+.    . ",
"          +@#+.                 +@#+.                +@#+.   .  ",
"          +@#+.                 +@#+.                +@#+.      ",
"          +@#+.                 +@#+.                +@#+.      ",
"          +@#+.                 +@#+.                +@#+.      ",
"@@@@@@@@@@@@#@@@@@@@@@@@@@@@@@@@@@$@@@@@@@@@@@@@@@@@@@@#@@@@@@@@",
"%%%%%%%%%%%%#%%%%%%%%%%%%%%%%%%%%%$%%%%%%%%%%%%%%%%%%%%#%%%%%%%%",
"#############&&&&&&&&&&&&&&&&&&&&&$&&&&&&&&&&&&&&&&&&&&#########",
"+++++++++++@#$$$$$$$$$$$$$$$$$$$$$*$$$$$$$$$$$$$$$$$$$$#++++++##",
"..........+@#*$$$$$$$$$$$$$$$$$$$***$$$$$$$$$$$$$$$$$$*#+... +=+",
".         +@#******************************************#+.  +#=+",
"          +@#*$$$$$$$$$$$$$$$$$$$***$$$$$$$$$$$$$$$$$$*#+. +#=+.",
"          +@#---------------------*--------------------#+.+==#+.",
"          +@#---------------------*--------------------#+ +=#+. ",
"          +@#*-------------------***-------------------###=#+.  ",
"          +@#******************************************# ##+.   ",
"          +@#*-------------------***------------------*#. #+.   ",
"          +@#---------------------*--------------------#. +.    ",
"          +@#**-----***---------*****---------*******--# #+.    ",
"          +@#****;****************;***************;****##+.     ",
"          +@#>>>*;**>>>>>>>>**>>>>;>***>>>>*****>>;>>**#+.      ",
"          +@#>>>,')>>>>>>>>>>>>>>;')>>>>>>>>>>>>>;')>>>#+.      ",
"          +@#>>>,')>>>>>>>>>>>>>>;')>>>>>>>>>>>>>,')>>>#+.      ",
"          +@#>>>,')>>>>>>>>>>>>>>,')>>>>>>>>>>>>>,'!>>>#+.      ",
"          +@#>>,',)~>>>>>>>>>>>>,!'))>>>>>>>>>>>,''!~>>#+.      ",
"          +@#>>;',)~>>>>>>>>>>>>,!'!)>>>>>>>>>>>,''))>>#+.      ",
"@@@@@@@@@@@@#>>,'!)~>>>>>>>>>>>>,!'!~>>>>>>>>>>>,'!)~>>#@@@@@@@@",
"%%%%%%%%%%%%#>>>,,,>>>>>>>>>>>>>>,,,>>>>>>>>>>>>>,,,>>>#%%%%%%%%",
"#############>>>*{*>>>>>>>>>>>>>>*{*>>>>>>>>>>>>>*{*>>>#########",
"+++++++++++@#>>>***>>>>>>>>>>>>>>***>>>>>>>>>>>>>***>>>#++++++++",
"..........+@#>>>>*>>>>>>>>>>>>>>>>*>>>>>>>>>>>>>>>*>>>>#+.......",
"          +@#>>>>>>>>>>>>>>>>>>>>>>>>>>>>>>>>>>>>>>>>>>#+.      ",
"          +@#>>>>>>>>>>>>>>>>>>>>>>>>>>>>>>>>>>>>>>>>>>#+.      ",
"          +@#>>>>>>>>>>>>;>>>>>>>>>>>>>>>>>;>>>>>>>>>>>#+.      ",
"          +@#>>>>>>>>>>>>;>>>>>>>>>>>>>>>>>;>>>>>>>>>>>#+.      ",
"          +@#>>>>>>>>>>>,')>>>>>>>>>>>>>>>;')>>>>>>>>>>#+.      ",
"          +@#>>>>>>>>>>>,')>>>>>>>>>>>>>>>,')>>>>>>>>>>#+.      ",
"          +@#>>>>>>>>>>>;'!>>>>>>>>>>>>>>>,,)>>>>>>>>>>#+.      ",
"          +@#>>>>>>>>>>,',!)>>>>>>>>>>>>>,!,)~>>>>>>>>>#+.      ",
"          +@#>>>>>>>>>>,',!~>>>>>>>>>>>>>,',!~>>>>>>>>>#+.      ",
"          +@#>>>>>>>>>>,!!)~>>>>>>>>>>>>>,'!!~>>>>>>>>>#+.      ",
"          +@#>>>>>>>>>>>,,,>>>>>>>>>>>>>>>,,,>>>>>>>>>>#+.      ",
"          +@#>>>>>>>>>>>>*>>>>>>>>>>>>>>>>>*>>>>>>>>>>>#+.      ",
"          +@#>>>>>>>>>>>>>>>>>>>>>>>>>>>>>>>>>>>>>>>>>>#+.      ",
"          +@#>>>>>>>>>>>>>>>>>>>>>>>>>>>>>>>>>>>>>>>>>>#+.      ",
"          +@#>>>>>>>>>>>>>>>>>>>>>>>>>>>>>>>>>>>>>>>>>>#+.      ",
"          +@#>>>>>>>>>>>>>>>>>>>>>>>>>>>>>>>>>>>>>>>>>>#+.      ",
"@@@@@@@@@@@@#>>>>>>>>>>>>>>>>>>>>>>>>>>>>>>>>>>>>>>>>>>#@@@@@@@@",
"%%%%%%%%%%%%#>>>>>>>>>>>>>>>>>>>>>>>>>>>>>>>>>>>>>>>>>>#%%%%%%%%",
"#############>>>>>>>>>>>>>>>>>>>>>>>>>>>>>>>>>>>>>>>>>>#########",
"+++++++++++@#++++++++++++++++++++@#+++++++++++++++++++@#++++++++",
"..........+@#+..................+@#+.................+@#+.......",
"          +@#+.                 +@#+.                +@#+.      ",
"          +@#+.                 +@#+.                +@#+.      ",
"          +@#+.                 +@#+.                +@#+.      ",
"          +@#+.                 +@#+.                +@#+.      ",
"       .  +@#+.                 +@#+.                +@#+.    ..",
"      .   +@#+.                 +@#+.                +@#+.   .  "};
