/* XPM */
static char * wall_xpm[] = {
"64 64 15 1",
" 	c #656565",
".	c #494949",
"+	c #3D3D3D",
"@	c #141414",
"#	c #242424",
"$	c #1C1C1C",
"%	c #101010",
"&	c #282828",
"*	c #0C0C0C",
"=	c #515151",
"-	c #0F0F0F",
";	c #525252",
">	c #414141",
",	c #212121",
"'	c #323232",
" .+++@+++++++++@+++++++++@+++++++++++@++++++++@+++++++++@++++++#",
" .+#@@@#######@@@#######@@@#########@@@######@@@#######@@@###+.#",
" .+#@@@@@@@@@@@@@@@@@@@@@@@@@@@@@@@@@@@@@@@@@@@@@@@@@@@@@@@@#+.#",
" .+#@@##$@#########@########@######@########@#########@$##@@#+.#",
" .+#@##$$@@$$$$$$$@@@$$$$$$@@@$$$$@@@$$$$$$@@@$$$$$$$@@$$##@#+.#",
".##@@#$$@@@@@@@@@@@@@@@@@@@@@@@@@@@@@@@@@@@@@@@@@@@@@@@@$$#@@##@",
"@@@@@$$@@%%@@@@@@@@%@@@@@@@@%@@@@@@%@@@@@@@@%@@@@@@@@%%@@$$@@@@@",
" ##@@@@@@%%%%%%%%%%%%%%%%%%%%%%%%%%%%%%%%%%%%%%%%%%%%%%@@@@@@##&",
" .+#@$$@@%**%%%%%%***%%%%%%***%%%%***%%%%%%***%%%%%%**%@@$$@#++#",
" .+#@#$$@@********************************************@@$$#@#+.#",
" .+#@##$@@********************************************@@$##@#+.#",
" .+#@##$@@********************************************@@$##@#+.#",
" .+#@##$@%********************************************%@$##@#+.#",
".##@@#$$@%********************************************%@$$#@@##@",
"@@@@@$$@@**********************************************@@$$@@@@@",
" ##@@@@@@**********************************************@@@@@@##&",
" .+#@$$@@@********************************************@@@$$@#+.#",
" .+#@#$$@@********************************************@@$$#@#+.#",
" .+#@##$@@********************************************@@$##@#+.#",
" .+#@##$@@********************************************@@$##@#+.#",
" .+#@##$@@********************************************@@$##@#+.#",
" .+#@##$@%********************************************%@$##@#+.#",
" .+#@#$$@%********************************************%@$$#@#+.#",
".##@@$$@@**********************************************@@$$@@##@",
"@@@@@@@@@**********************************************@@@@@@@@@",
" &&@@$$@@@********************************************@@@$$@@&&&",
" .+#@#$$@@@@@@@@@@@***@@@@@@@@@***@@@@@@@@@***@@@@@@@@@@$$#@#+.&",
" .+#@##$@@@$$$$$$$$@@@$$$$$$$$$@@@$$$$$$$$$@@@$$$$$$$@@@$##@#+.&",
" .+#@##$$@$$######$$@$$#######$$@$$#######$$@$$#####$$@$$##@#+.&",
" .+#@@##$@$########$@$#########$@$#########$@$#######$@$##@@#+.&",
" .+#@@@@@@@@@@@@@@@@@@@@@@@@@@@@@@@@@@@@@@@@@@@@@@@@@@@@@@@@#+.&",
" .+########@@@##########@@@################@@@#########@@@###+.&",
" .++++++++++@++++++++++++@++++++++++++++++++@+++++++++++@+++++.&",
"            @            @                  @           @      &",
" ++++++++++&@ ==========&@ ................&@ =========&@ +++++&",
" ++++++++++&@ ==========&@ ................&@ =========&@ +++++&",
" ++++++++++&@ ==========&@ ................&@ =========&@ +++++&",
" ++++++++++&@ ==========&@ ................&@ =========&@ +++++&",
"&&&&&&&&&&&&@&&&&&&&&&&&&@&&&&&&&&&&&&&&&&&&@&&&&&&&&&&&@&&&&&&&",
" +@@@@@@@@@@@@@@@@@@@@@@@@@@@@@@@@@@@@@@@@@@@@@@@@@@@@@@@@@@@@@-",
" ++++@++++++++++++@+++++++++++++++++@++++++++++++@++++++++++++.#",
"     @            @                 @            @             #",
" ===&@ ==========&@ +++++++++++++++&@ ==========&@ ............#",
" ===&@ ==========&@ +++++++++++++++&@ ==========&@ ............#",
" ===&@ ==========&@ +++++++++++++++&@ ==========&@ ............#",
" ===&@ ==========&@ +++++++++++++++&@ ==========&@ ............#",
"##&&&@&&&&&&&&&&&&@&&&&&&&&&&&&&&&&&@&&&&&&&&&&&&@&&&&&&&&&&&&&#",
" ;@@@@@@@@@@@@@@@@@@@@@@@@@@@@@@@@@@@@@@@@@@@@@@@@@@@@@@@@@@@@.-",
" ;     @             @                 @            @          #",
" >....&@ +++++++++++&@ ...............&@ ..........&@=+++++++++,",
" >....&@ +++++++++++&@ ...............&@ ..........&@=+++++++++,",
" >....&@ +++++++++++&@ ...............&@ ..........&@=+++++++++,",
" >....&@ +++++++++++&@ ...............&@ ..........&@=+++++++++,",
" >....&@ +++++++++++&@ ...............&@ ..........&@=+++++++++,",
"##&&&&&@&&&&&&&&&&&&&@&&&&&&&&&&&&&&&&&@&&&&&&&&&&&&@&&&&&&&&&&,",
" ;@@@@@@@@@@@@@@@@@@@@@@@@@@@@@@@@@@@@@@@@@@@@@@@@@@@@@@@@@@@@.-",
" ;            &@           &@                &@         &@    ;#",
" '++++++++++++&@ ++++++++++&@ +++++++++++++++&@ ++++++++&@ +++',",
" '++++++++++++&@ ++++++++++&@ +++++++++++++++&@ ++++++++&@ +++',",
" '++++++++++++&@ ++++++++++&@ +++++++++++++++&@ ++++++++&@ +++',",
" '++++++++++++&@ ++++++++++&@ +++++++++++++++&@ ++++++++&@ +++',",
" '++++++++++++&@ ++++++++++&@ +++++++++++++++&@ ++++++++&@ +++',",
"+,&&&&&&&&&&&&&@&&&&&&&&&&&&@&&&&&&&&&&&&&&&&&@&&&&&&&&&&@&&&&,,",
"@@@@@@@@@@@@@@@@@@@@@@@@@@@@@@@@@@@@@@@@@@@@@@@@@@@@@@@@@@@@@@@@"};
